<svg xmlns="http://www.w3.org/2000/svg" width="400" height="400" viewBox="0 0 400 NaN" fill-rule="evenodd" xmlns:v="https://vecta.io/nano"><path d="M96.808 82.757L95.016 83l-1.11 2.892c-5.602 14.614-6.32 33.227-1.83 47.375l.846 2.667-2.598 3.133c-15.84 19.105-21.065 43.332-16.072 74.533 5.84 36.484 26.765 60.396 60.746 69.41 9.916 2.63 15.84 3.832 24.67 5.003l3.47.461-2.56 3.055c-2.195 2.62-5.85 9.008-7.02 12.271-.65 1.811-.857 2.493-1.343 4.4-.28 1.1-.74 3.134-1.02 4.519-.58 2.858-.367 2.704-6.727 4.821-3.248 1.081-4.67 1.43-9.988 2.452-15.242 2.931-30.582-4.333-40.286-19.078-7.937-12.059-13.74-17.351-22.812-20.803-9.504-3.618-19.53-2.225-18.332 2.547.416 1.658 4.213 5.262 8.353 7.93 7.04 4.535 14.66 13.763 18.675 22.612 1.417 3.123 2.61 5.876 3.118 7.2.296.77.67 1.58.828 1.8s.688 1.12 1.173 2c9.047 16.401 32.51 24.311 58.94 19.87 3.045-.512 5.608-.859 5.695-.772s.206 9.146.264 20.13l.105 19.972-1.11 1.886c-1.982 3.372-3.81 4.345-8.797 4.679-4.003.268-4.563.866-1.314 1.4 1.22.2 2.22.515 2.22.7s.63.335 1.4.335 1.4.18 1.4.4.54.4 1.2.4 1.2.18 1.2.4.72.4 1.6.4 1.6.18 1.6.4.72.4 1.6.4 1.6.18 1.6.4.71.4 1.576.4 1.688.18 1.824.4 1.047.4 2.024.4 1.776.18 1.776.4.9.4 2 .4 2 .18 2 .4 1.06.4 2.376.4c1.307 0 2.488.18 2.624.4s1.482.4 3 .4c1.84 0 2.798.165 2.9.5.13.393 5.51.5 25.1.5s24.97-.107 25.1-.5c.112-.335 1.07-.5 2.9-.5 1.508 0 2.854-.18 3-.4s1.317-.4 2.624-.4c1.317 0 2.376-.178 2.376-.4s.9-.4 2-.4 2-.18 2-.4.8-.4 1.776-.4 1.888-.18 2.024-.4.957-.4 1.824-.4 1.576-.18 1.576-.4.72-.4 1.6-.4 1.6-.18 1.6-.4.72-.4 1.6-.4 1.6-.18 1.6-.4.54-.4 1.2-.4 1.2-.18 1.2-.4.63-.4 1.4-.4 1.4-.151 1.4-.335 1-.5 2.22-.7c3.354-.551 2.846-1.135-1.22-1.4-5.083-.332-6.897-1.286-8.89-4.679l-1.11-1.886.13-30.4c.185-43.858-.977-50.325-11.182-62.26-2.153-2.518-2.146-2.532 1.5-2.917 2.253-.238 3.816-.478 9.463-1.456 52.603-9.104 77.628-39.838 77.65-95.367.01-22.09-6.343-39.964-19.075-53.676l-1.185-1.275 1.05-3.325c4.3-13.664 3.704-30.4-1.66-45.841-1.52-4.371-1.284-4.221-6.507-4.178-5.354.043-9.018.739-15.772 2.995-7.658 2.558-17.383 7.22-24.942 11.956-2.058 1.289-3.822 2.344-3.922 2.344s-1.24.72-2.536 1.6c-2.376 1.614-3.598 1.9-5.28 1.239-.945-.371-5.684-1.517-8.52-2.059l-8.8-1.606c-21.744-3.501-48.377-2.949-68.4 1.418-3.54.772-8.15 1.881-9.228 2.221-1.96.617-2.916.463-4.7-.755-18.585-12.697-40.025-20.801-51.064-19.301M1.2 230.176c0 .317.18.688.4.824s.4-.123.4-.576-.18-.824-.4-.824-.4.259-.4.576m396.8.248c0 .453.18.712.4.576s.4-.507.4-.824-.18-.576-.4-.576-.4.371-.4.824m-.8 4.8c0 .453.18.712.4.576s.4-.507.4-.824-.18-.576-.4-.576-.4.371-.4.824m-1.6 8c0 .453.18.712.4.576s.4-.507.4-.824-.18-.576-.4-.576-.4.371-.4.824m-35.5 77.374c-.57.647-.64 1.002-.196 1.002.167 0 .528-.36.803-.8.57-.913.144-1.055-.607-.202m-10.04 12.444c-.298.336-.46.69-.365.787s.503-.185.903-.627.563-.795.364-.787-.605.29-.902.627m-300.054.429c.01.465.467 1.034 1.394 1.729.762.571.77.562.2-.198-.947-1.26-1.6-1.888-1.594-1.531M66.8 350.6c.517.55 1.096 1 1.288 1s-.102-.45-.652-1-1.13-1-1.288-1 .135.45.652 1m266.06-.358c-.298.336-.46.69-.365.787s.503-.185.903-.627.563-.795.364-.787-.605.29-.902.627m-229.458 25.76c.4.442.81.72.9.619.216-.216-.924-1.421-1.345-1.421-.16 0 .036.361.435.802m28.518 13.278c.373.373.587.373.96 0s.267-.48-.48-.48-.853.107-.48.48" fill="#fbfbfb"/><path d="M178.3.275c-1.925.086-3.5.329-3.5.541s-1.34.384-2.976.384-3.088.18-3.224.4-1.216.4-2.4.4-2.264.18-2.4.4-1.047.4-2.024.4-1.776.18-1.776.4-.9.4-2 .4-2 .18-2 .4-.72.4-1.6.4-1.6.18-1.6.4-.72.4-1.6.4-1.6.18-1.6.4-.72.4-1.6.4-1.6.18-1.6.4-.54.4-1.2.4-1.2.18-1.2.4-.63.4-1.4.4-1.4.156-1.4.347-.675.454-1.5.585c-2.076.328-2.638.457-3.1.708-.22.12-1.2.451-2.2.735-1.883.54-3.323 1.076-4.495 1.672-.382.194-1.057.353-1.5.353s-.805.18-.805.4-.45.4-1 .4-1 .18-1 .4-.36.4-.8.4-.8.18-.8.4-.44.4-.976.4-1.088.18-1.224.4-.597.4-1.024.4-.776.18-.776.4-.36.4-.8.4-.8.18-.8.4-.44.4-.976.4-1.088.18-1.224.4-.597.4-1.024.4-.777.135-.78.3c-.004.359-1.94 1.3-2.677 1.3-.286 0-.52.18-.52.4s-.37.4-.824.4-.712.18-.576.4-.123.4-.576.4-.824.18-.824.4-.36.4-.8.4-.8.18-.8.4-.36.4-.8.4-.8.18-.8.4-.32.4-.712.4-.97.36-1.288.8-.897.8-1.288.8-.712.18-.712.4-.135.361-.3.313c-.47-.136-3.7 1.403-3.7 1.764 0 .178-.36.323-.8.323s-.8.18-.8.4-.27.4-.6.4-.6.18-.6.4-.27.4-.6.4-.6.18-.6.4-.23.4-.512.4-.77.36-1.088.8-.857.8-1.2.8-.883.36-1.2.8-.857.8-1.2.8-.883.36-1.2.8-.857.8-1.2.8-.883.36-1.2.8-.825.8-1.128.8-1.055.54-1.672 1.2-1.337 1.2-1.6 1.2-.983.54-1.6 1.2-1.286 1.2-1.488 1.2-.748.405-1.212.9c-1.186 1.264-2.004 1.9-2.443 1.9-.207 0-1.295.9-2.418 2s-2.22 2-2.435 2-2.557 2.205-5.204 4.9l-5.22 5.3C50.03 66.047 48 68.136 48 68.465c0 .219-.72 1.089-1.6 1.935s-1.6 1.731-1.6 1.969-.18.431-.4.431-.4.193-.4.429-.225.671-.5.967-.86 1.012-1.3 1.59-1.385 1.666-2.1 2.419-1.3 1.572-1.3 1.821-.495.932-1.1 1.517-1.156 1.322-1.225 1.635-.474.874-.9 1.244-.775.926-.775 1.237-.36.824-.8 1.141-.8.857-.8 1.2-.36.883-.8 1.2-.8.857-.8 1.2-.36.883-.8 1.2-.8.807-.8 1.088-.18.512-.4.512-.4.27-.4.6-.18.6-.4.6-.4.27-.4.6-.18.6-.4.6-.4.345-.4.767-.135.826-.3.9c-.413.183-1.923 3.214-1.8 3.611.055.177-.08.322-.3.322s-.4.32-.4.712-.36.971-.8 1.288a2.12 2.12 0 0 0-.8 1.512c0 .522-.177.826-.4.688s-.4.123-.4.576-.18.824-.4.824-.4.36-.4.8-.18.8-.4.8-.4.371-.4.824-.18.712-.4.576-.4.123-.4.576-.18.824-.4.824-.4.36-.4.8-.18.8-.4.8-.4.36-.4.8-.18.8-.4.8-.4.349-.4.776-.18.888-.4 1.024-.4.687-.4 1.224-.18.976-.4.976-.4.36-.4.8-.18.8-.4.8-.4.36-.4.8-.18.8-.4.8-.4.54-.4 1.2-.18 1.2-.4 1.2-.4.36-.4.8-.18.8-.4.8-.4.45-.4 1-.18 1-.4 1-.4.362-.4.805-.16 1.118-.353 1.5c-.596 1.172-1.132 2.612-1.672 4.495-.284.99-.615 1.98-.735 2.2-.252.463-.38 1.024-.71 3.11-.132.83-.395 1.606-.585 1.723s-.346.744-.346 1.391S7.42 144 7.2 144s-.4.72-.4 1.6-.18 1.6-.4 1.6-.4.529-.4 1.176-.18 1.288-.4 1.424-.4.867-.4 1.624-.18 1.376-.4 1.376-.4.72-.4 1.6-.18 1.6-.4 1.6-.4.799-.4 1.776-.18 1.888-.4 2.024-.4 1.036-.4 2-.18 1.864-.4 2-.4 1.216-.4 2.4-.18 2.264-.4 2.4-.4 1.572-.4 3.19c0 1.999-.16 2.997-.5 3.11-.732.244-.732 49.956 0 50.2.318.106.5.956.5 2.333 0 1.192.18 2.167.4 2.167.226 0 .4 1.133.4 2.6s.174 2.6.4 2.6.403 1.171.406 2.7c.004 1.891.122 2.52.394 2.1.278-.43.39-.003.394 1.5.003 1.155.186 2.1.406 2.1s.4.9.4 2 .18 2 .4 2 .4.641.4 1.424c0 .847.162 1.323.4 1.176s.4.329.4 1.176c0 .783.15 1.424.334 1.424s.365.765.4 1.7.246 1.76.466 1.833.4.569.4 1.1.18.967.4.967.4.525.4 1.167.225 1.257.5 1.368c.384.155.386.209.01.233-.356.023-.386.305-.1 1.032.21.55.26 1 .1 1s-.054.216.2.48a1.95 1.95 0 0 1 .48 1.2c0 .396.14.72.313.72s.353.485.402 1.078.223 1.177.387 1.3.36.672.436 1.222.3 1.06.5 1.133.362.659.362 1.3.18 1.167.4 1.167.403.495.406 1.1c.005.857.092.968.394.5.294-.455.39-.286.394.7.003.715.186 1.3.406 1.3s.4.54.4 1.2.18 1.2.4 1.2.4.36.4.8.18.8.4.8.4.36.4.8.18.8.4.8.4.36.4.8.18.8.4.8.4.54.4 1.2.18 1.2.4 1.2.4.36.4.8.18.8.4.8.4.36.4.8.18.8.4.8.4.281.4.624.184.509.4.37.384-.105.353.076c-.158.908.082 1.749.437 1.53.223-.138.4.166.4.688a2.12 2.12 0 0 0 .8 1.512c.44.317.8.897.8 1.288s.18.712.4.712.4.36.4.8.18.8.4.8.4.36.4.8.19.8.424.8.312.18.176.4-.057.4.176.4.395.135.36.3c-.104.486.78 2.4 1.24 2.685.234.144.425.612.425 1.039s.18.776.4.776.4.27.4.6.18.6.4.6.4.227.4.504.367.733.816 1.013.707.685.574.899.04.498.385.63.625.541.625.908.36.929.8 1.246.8.825.8 1.128.54 1.055 1.2 1.672 1.2 1.343 1.2 1.614.388.828.86 1.239.64.747.368.747.255.72 1.17 1.6 1.452 1.6 1.2 1.6.054.495.7 1.1 1.414 1.547 1.706 2.092.95 1.324 1.467 1.729.936 1.005.936 1.332.18.483.4.347.403.164.406.676c.005.743.082.807.394.324.327-.506.39-.484.394.14.003.406.512 1.216 1.13 1.8s1.242 1.375 1.387 1.76.54.7.875.7c.36 0 .626.372.645.9.017.495.124.668.238.384.15-.371.42-.272.96.351.414.478.638 1.053.5 1.278-.146.236-.057.289.208.125.254-.157.462-.086.462.158 0 .351 2.426 2.859 6.11 6.314.17.16 1.723 1.767 3.45 3.573s3.253 3.17 3.39 3.033.25.051.25.417.278.667.618.667c.728 0 2.644 1.805 2.29 2.158-.133.133.018.242.336.242s.838.36 1.155.8.942.803 1.388.806c.67.005.708.074.212.394-.483.312-.42.389.324.394.512.003.813.184.676.406s.044.4.4.4.536.18.4.4-.006.4.288.4.795.36 1.112.8.942.803 1.388.806c.603.005.673.094.274.347s-.267.409.5.602c.57.143 1.038.437 1.038.653s.36.392.8.392c.554 0 .8.277.832.9.017.495.122.676.232.402.128-.318.772.095 1.77 1.132.862.897 1.567 1.409 1.567 1.137s.333-.109.74.361.857.737 1 .594.26-.019.26.274.114.42.253.281.75.281 1.36.933 1.396 1.186 1.747 1.186.64.18.64.4.32.4.712.4.97.36 1.288.8.885.8 1.26.8.787.315.91.7c.208.643 1.9 1.7 2.736 1.7.192 0 .62.272.953.604s.773.498.98.37.328-.003.268.278.07.535.3.564c.72.095 1.99.729 2.53 1.262.3.287 1.016.522 1.61.522.625 0 1.328.339 1.66.8.317.44.897.8 1.288.8s.712.18.712.4.36.4.8.4.8.18.8.4.36.4.8.4.8.18.8.4.348.4.773.4c.438 0 .89.37 1.044.853.214.675.346.737.634.3.3-.457.434-.434.767.13.222.376.645.591.94.477s.65.086.787.442.43.537.65.4.403-.059.403.174.54.424 1.2.424 1.2.18 1.2.4.36.4.8.4.8.18.8.4.36.4.8.4.8.18.8.4.36.4.8.4.8.18.8.4.54.4 1.2.4 1.2.18 1.2.4.46.4 1.024.4c.58 0 .916.173.776.4-.145.234.302.412 1.076.428 1.103.024 1.19.086.524.372-.62.266-.417.35.9.372.935.015 1.7.208 1.7.428s.55.4 1.224.4c.713 0 1.12.167.976.4s.297.403 1.076.406c.994.005 1.174.101.724.388-.792.503 7.3.082 9.2-.479 2.048-.605 3.833-2.088 5.09-4.229l1.11-1.886-.105-19.972-.264-20.13c-.087-.087-2.65.26-5.695.772-26.428 4.441-49.892-3.469-58.94-19.87-.485-.88-1.013-1.78-1.173-2s-.532-1.03-.828-1.8c-.51-1.324-1.7-4.077-3.118-7.2-4.014-8.849-11.636-18.077-18.675-22.612-4.14-2.668-7.937-6.272-8.353-7.93-1.197-4.772 8.828-6.165 18.332-2.547 9.073 3.452 14.875 8.744 22.812 20.803 8.64 13.129 19.735 19.486 34.006 19.486 3.905 0 5.04-.135 10.6-1.261 2.23-.451 7.997-2.277 10.51-3.327 1.255-.524 1.418-.791 1.886-3.093.282-1.385.742-3.419 1.02-4.519.486-1.907.694-2.589 1.343-4.4 1.17-3.263 4.826-9.651 7.02-12.271l2.56-3.055-3.47-.461c-8.83-1.171-14.754-2.373-24.67-5.003-40.817-10.828-62.257-42.404-62.338-91.81-.035-21.494 5.29-37.207 17.664-52.133l2.598-3.133-.846-2.667c-4.492-14.149-3.772-32.774 1.83-47.375L95.018 83l1.99-.262c10.968-1.44 32.382 6.693 50.863 19.32 1.784 1.218 2.74 1.372 4.7.755 1.078-.34 5.687-1.449 9.228-2.221 20.023-4.367 46.656-4.919 68.4-1.418 2.163.348 3.468.586 8.8 1.606 2.835.542 7.574 1.688 8.52 2.059 1.683.661 2.905.375 5.28-1.239 1.296-.88 2.437-1.6 2.536-1.6s1.864-1.055 3.922-2.344c7.56-4.736 17.284-9.398 24.942-11.956 6.754-2.256 10.418-2.952 15.772-2.995 5.223-.043 4.988-.193 6.507 4.178 5.364 15.441 5.97 32.177 1.66 45.841l-1.05 3.325 1.185 1.275C321.007 151.036 327.36 168.91 327.35 191c-.022 55.529-25.047 86.263-77.65 95.367-5.647.978-7.2 1.218-9.463 1.456-3.636.385-3.643.399-1.5 2.917 10.205 11.935 11.367 18.402 11.182 62.26l-.13 30.4 1.11 1.886c1.258 2.141 3.043 3.624 5.09 4.229 1.937.572 9.693.96 9.4.469-.13-.211.223-.384.786-.384s1.024-.188 1.024-.418.225-.388.5-.352c1.23.16 2.326-.065 2.1-.43-.148-.24.364-.402 1.276-.406 1.13-.005 1.37-.106.924-.394-.468-.302-.357-.389.5-.394.605-.003 1.1-.186 1.1-.406s.46-.4 1.024-.4c.58 0 .916-.173.776-.4-.15-.243.43-.402 1.476-.406 1.26-.005 1.563-.11 1.124-.394-.485-.314-.428-.389.3-.394.495-.003.9-.186.9-.406s.36-.4.8-.4.8-.18.8-.4.45-.4 1-.4 1-.18 1-.4.564-.4 1.253-.4c.785 0 1.532-.322 2-.861.41-.474.747-.647.747-.384 0 .35.148.34.558-.039.307-.284.476-.651.376-.816s.01-.3.242-.3.436.225.45.5.223.094.463-.403.632-.881.873-.853c.973.113 1.47-.066 1.237-.444-.146-.236.297-.403 1.076-.406 1.002-.005 1.178-.101.724-.394-.473-.306-.384-.389.425-.394.563-.003 1.41-.366 1.883-.806s1.136-.8 1.475-.8.617-.18.617-.4.347-.4.77-.4 1.042-.27 1.372-.6.883-.6 1.228-.6.63-.191.63-.424.165-.321.368-.196.64-.044.97-.376.932-.607 1.332-.61c.617-.005.637-.066.13-.394-.468-.302-.357-.389.5-.394.605-.003 1.1-.186 1.1-.406s.27-.4.6-.4.6-.18.6-.4.25-.4.555-.4.98-.538 1.5-1.196 1.26-1.198 1.645-1.2.7-.184.7-.404.37-.4.824-.4.712-.18.576-.4-.048-.4.195-.4.895-.453 1.45-1.008 1.143-.923 1.31-.821.554-.164.862-.592.806-.779 1.105-.779 1.25-.735 2.11-1.633 1.57-1.41 1.57-1.138.336.106.747-.368.95-.861 1.2-.861.453-.191.453-.424.152-.329.337-.215.95-.501 1.7-1.367 1.723-1.583 2.163-1.591c.664-.013.698-.081.2-.403-.483-.312-.42-.389.324-.394.512-.003.813-.184.676-.406s-.006-.4.288-.4.795-.36 1.112-.8.813-.8 1.1-.8.643-.315.79-.7c.343-.906 1.135-1.7 1.694-1.7.243 0 .605-.405.804-.9s.373-.667.387-.383 1.47-.975 3.236-2.8l3.56-3.659 3.4-3.318c1.68-1.638 2.947-3.149 2.818-3.359s.05-.381.4-.381.755-.315.9-.7a2.94 2.94 0 0 1 1.81-1.81c.385-.146.7-.468.7-.717s.54-.956 1.2-1.573 1.203-1.454 1.206-1.86c.005-.624.067-.646.394-.14.33.513.39.498.394-.1.003-.385.186-.7.406-.7s.402-.225.404-.5.54-.924 1.197-1.443 1.11-1.076 1-1.239.17-.677.603-1.141.786-1.043.786-1.286.912-1.331 2.027-2.417 1.807-1.974 1.538-1.974-.1-.336.374-.747.86-1.001.86-1.312.36-.824.8-1.141.8-.817.8-1.112.18-.424.4-.288.4-.108.4-.543.166-.85.37-.924.428-.403.5-.733.625-1.031 1.23-1.558 1.1-1.202 1.1-1.5.18-.542.4-.542.4-.27.4-.6.18-.6.4-.6.403-.495.406-1.1c.005-.857.092-.968.394-.5.314.485.39.428.394-.3.003-.495.186-.9.406-.9s.4-.36.4-.8.18-.8.4-.8.4-.283.4-.629.27-.898.6-1.228.6-.947.6-1.372.18-.771.4-.771.4-.36.4-.8.18-.8.4-.8.4-.32.4-.712.356-.968.79-1.282c.582-.419.66-.652.3-.882-.385-.245-.383-.313.01-.318.275-.003.5-.377.5-.83s.18-.712.4-.576c.35.217.464-.036.374-.83-.015-.127.373-.577.86-1s.68-.77.426-.77-.46-.21-.46-.467.11-.355.248-.219c.355.355 1.352-.74 1.352-1.485 0-.346.18-.629.4-.629s.4-.641.4-1.424c0-.847.162-1.323.4-1.176s.4-.263.4-.976c0-.673.18-1.224.4-1.224s.4-.32.4-.712.36-.971.8-1.288c.57-.411.802-1.04.806-2.188.005-1.188.108-1.454.394-1.012.294.455.39.286.394-.7.003-.715.186-1.3.406-1.3s.4-.27.4-.6.18-.6.4-.6.4-.525.4-1.167.178-1.226.397-1.3.437-.628.487-1.233.23-1.1.403-1.1.313-.551.313-1.224c0-.713.167-1.12.4-.976s.4-.236.4-.896c0-.629.174-1.318.386-1.53s.505-1.374.65-2.58.42-2.254.614-2.327.35-.569.35-1.1.18-.967.4-.967.4-.81.4-1.8.18-1.8.4-1.8.4-.63.4-1.4.18-1.4.4-1.4.4-.821.4-1.824c0-1.113.156-1.727.4-1.576s.4-.529.4-1.776c0-1.113.18-2.024.4-2.024s.4-.81.4-1.8.18-1.8.4-1.8.4-.99.4-2.2.18-2.2.4-2.2.4-1.067.4-2.4.178-2.4.4-2.4.4-.975.4-2.167c0-1.361.183-2.227.493-2.331.842-.28.697-50.302-.146-50.302-.19 0-.347-1.339-.347-2.976s-.18-3.088-.4-3.224-.4-1.237-.4-2.447c0-1.365-.152-2.106-.4-1.953s-.4-.604-.4-2-.15-2.154-.4-2-.4-.521-.4-1.753c0-1.1-.18-2.111-.4-2.247s-.403-1.002-.406-1.924c-.005-1.229-.1-1.516-.394-1.076s-.39.083-.394-1.276c-.003-1.032-.186-1.988-.406-2.124s-.4-.957-.4-1.824-.18-1.576-.4-1.576-.4-.551-.4-1.224c0-.713-.167-1.12-.4-.976-.24.147-.4-.337-.4-1.2s-.16-1.347-.4-1.2c-.23.142-.402-.23-.404-.876-.008-1.935-.483-4.118-.847-3.892-.192.118-.35-.415-.35-1.185s-.18-1.511-.4-1.647-.4-.676-.4-1.2-.18-1.064-.4-1.2-.4-.597-.4-1.024-.18-.776-.4-.776-.4-.54-.4-1.2-.18-1.2-.4-1.2-.403-.495-.406-1.1c-.005-.857-.092-.968-.394-.5-.294.455-.39.286-.394-.7-.003-.715-.186-1.3-.406-1.3s-.4-.54-.4-1.2-.18-1.2-.4-1.2-.4-.36-.4-.8-.18-.8-.4-.8-.4-.36-.4-.8-.18-.8-.4-.8-.4-.439-.4-.976-.18-1.088-.4-1.224-.4-.597-.4-1.024-.18-.776-.4-.776-.4-.36-.4-.8-.18-.8-.4-.8-.4-.36-.4-.8-.18-.8-.4-.8-.4-.281-.4-.624-.18-.512-.4-.376c-.227.14-.4-.196-.4-.776 0-.563-.18-1.024-.4-1.024s-.4-.32-.4-.712-.36-.971-.8-1.288-.8-1.035-.8-1.6-.36-1.282-.8-1.6-.8-.884-.8-1.26-.225-.925-.5-1.221-.556-.791-.624-1.1-.473-1.053-.9-1.653-.776-1.377-.776-1.728-.18-.638-.4-.638-.4-.27-.4-.6-.18-.6-.4-.6-.4-.27-.4-.6-.18-.6-.4-.6-.4-.23-.4-.512-.36-.771-.8-1.088-.8-.857-.8-1.2-.36-.883-.8-1.2-.8-.825-.8-1.128-.54-1.055-1.2-1.672-1.2-1.343-1.2-1.614-.388-.828-.86-1.239-.635-.747-.358-.747-.055-.522-.74-1.16S361.2 80.263 361.2 80s-.54-.983-1.2-1.6-1.2-1.313-1.2-1.547-.63-1.056-1.4-1.826-1.4-1.568-1.4-1.773-.9-1.292-2-2.415-2-2.219-2-2.435-2.205-2.557-4.9-5.204l-5.3-5.228C337.038 53.038 331.876 48 331.583 48c-.208 0-1.298-.9-2.422-2s-2.254-2-2.514-2-1.065-.63-1.79-1.4-1.504-1.4-1.728-1.4-.91-.54-1.528-1.2-1.337-1.2-1.6-1.2-.983-.54-1.6-1.2-1.37-1.2-1.672-1.2-.81-.36-1.128-.8-.857-.8-1.2-.8-.883-.36-1.2-.8-.857-.8-1.2-.8-.883-.36-1.2-.8-.857-.8-1.2-.8-.883-.36-1.2-.8-.807-.8-1.088-.8-.512-.18-.512-.4-.27-.4-.6-.4-.6-.18-.6-.4-.27-.4-.6-.4-.6-.18-.6-.4-.36-.4-.8-.4-.8-.162-.8-.361c0-.361-2.334-1.404-2.9-1.296-.165.031-.3-.134-.3-.367s-.18-.312-.4-.176-.4.057-.4-.176-.32-.424-.712-.424-.97-.36-1.288-.8-.897-.8-1.288-.8-.712-.18-.712-.4-.36-.4-.8-.4-.8-.18-.8-.4-.36-.4-.8-.4-.8-.18-.8-.4-.27-.4-.6-.4-.6-.18-.6-.4-.36-.4-.8-.4-.8-.18-.8-.4-.36-.4-.8-.4-.8-.18-.8-.4-.36-.4-.8-.4-.8-.18-.8-.4-.35-.4-.776-.4-.888-.18-1.024-.4-.687-.4-1.224-.4-.976-.18-.976-.4-.36-.4-.8-.4-.8-.18-.8-.4-.46-.4-1.024-.4c-.58 0-.916-.173-.776-.4.144-.233-.263-.4-.976-.4-.673 0-1.224-.18-1.224-.4s-.36-.4-.8-.4-.8-.18-.8-.4-.45-.4-1-.4-1-.18-1-.4-.362-.4-.805-.4-1.118-.159-1.5-.353c-1.172-.596-2.612-1.132-4.495-1.672-1-.284-1.98-.615-2.2-.735-.462-.251-1.024-.38-3.1-.708-.825-.131-1.5-.394-1.5-.585s-.63-.347-1.4-.347-1.4-.18-1.4-.4-.54-.4-1.2-.4-1.2-.18-1.2-.4-.72-.4-1.6-.4-1.6-.18-1.6-.4-.72-.4-1.6-.4-1.6-.18-1.6-.4-.72-.4-1.6-.4-1.6-.18-1.6-.4-.9-.4-2-.4-2-.18-2-.4-.8-.4-1.776-.4-1.888-.18-2.024-.4-1.216-.4-2.4-.4-2.264-.18-2.4-.4-1.572-.4-3.2-.4c-1.975 0-2.997-.162-3.107-.492C224.94.222 187.29-.126 178.3.275" fill="#040404"/></svg>